<svg width="60" height="42" viewBox="0 0 60 42" fill="none" xmlns="http://www.w3.org/2000/svg">
<circle cx="17.5" cy="24.5" r="17.5" fill="#FF5F56" fill-opacity="0.1"/>
<mask id="path-2-inside-1_0_1" fill="white">
<path d="M17.6187 41.9996C19.9168 41.984 22.1893 41.5159 24.3064 40.622C26.4236 39.7281 28.344 38.426 29.9579 36.7899C31.5718 35.1539 32.8477 33.216 33.7127 31.0869C34.5777 28.9577 35.0149 26.6791 34.9993 24.381C34.9837 22.0829 34.5155 19.8104 33.6217 17.6933C32.7278 15.5761 31.4257 13.6557 29.7896 12.0418C28.1536 10.4278 26.2157 9.15194 24.0866 8.28694C21.9574 7.42194 19.6788 6.98477 17.3807 7.0004L17.3924 8.7257C19.4639 8.71161 21.5179 9.10568 23.4372 9.8854C25.3564 10.6651 27.1032 11.8152 28.578 13.27C30.0527 14.7249 31.2264 16.4559 32.0322 18.3643C32.8379 20.2728 33.2599 22.3212 33.274 24.3927C33.2881 26.4642 32.894 28.5182 32.1143 30.4375C31.3346 32.3567 30.1845 34.1035 28.7296 35.5783C27.2748 37.053 25.5438 38.2268 23.6353 39.0325C21.7269 39.8382 19.6785 40.2602 17.6069 40.2743L17.6187 41.9996Z"/>
</mask>
<path d="M17.6187 41.9996C19.9168 41.984 22.1893 41.5159 24.3064 40.622C26.4236 39.7281 28.344 38.426 29.9579 36.7899C31.5718 35.1539 32.8477 33.216 33.7127 31.0869C34.5777 28.9577 35.0149 26.6791 34.9993 24.381C34.9837 22.0829 34.5155 19.8104 33.6217 17.6933C32.7278 15.5761 31.4257 13.6557 29.7896 12.0418C28.1536 10.4278 26.2157 9.15194 24.0866 8.28694C21.9574 7.42194 19.6788 6.98477 17.3807 7.0004L17.3924 8.7257C19.4639 8.71161 21.5179 9.10568 23.4372 9.8854C25.3564 10.6651 27.1032 11.8152 28.578 13.27C30.0527 14.7249 31.2264 16.4559 32.0322 18.3643C32.8379 20.2728 33.2599 22.3212 33.274 24.3927C33.2881 26.4642 32.894 28.5182 32.1143 30.4375C31.3346 32.3567 30.1845 34.1035 28.7296 35.5783C27.2748 37.053 25.5438 38.2268 23.6353 39.0325C21.7269 39.8382 19.6785 40.2602 17.6069 40.2743L17.6187 41.9996Z" fill="#E6E0FF" stroke="#FF5F56" stroke-width="6" mask="url(#path-2-inside-1_0_1)"/>
<path d="M18 26.0625C17.6925 26.0625 17.4375 25.8075 17.4375 25.5V21.75C17.4375 21.4425 17.6925 21.1875 18 21.1875C18.3075 21.1875 18.5625 21.4425 18.5625 21.75V25.5C18.5625 25.8075 18.3075 26.0625 18 26.0625Z" fill="#FF5F56"/>
<path d="M18 28.5C17.955 28.5 17.9025 28.4925 17.85 28.485C17.805 28.4775 17.76 28.4625 17.715 28.44C17.67 28.425 17.625 28.4025 17.58 28.3725C17.5425 28.3425 17.505 28.3125 17.4675 28.2825C17.3325 28.14 17.25 27.945 17.25 27.75C17.25 27.555 17.3325 27.36 17.4675 27.2175C17.505 27.1875 17.5425 27.1575 17.58 27.1275C17.625 27.0975 17.67 27.075 17.715 27.06C17.76 27.0375 17.805 27.0225 17.85 27.015C17.9475 26.9925 18.0525 26.9925 18.1425 27.015C18.195 27.0225 18.24 27.0375 18.285 27.06C18.33 27.075 18.375 27.0975 18.42 27.1275C18.4575 27.1575 18.495 27.1875 18.5325 27.2175C18.6675 27.36 18.75 27.555 18.75 27.75C18.75 27.945 18.6675 28.14 18.5325 28.2825C18.495 28.3125 18.4575 28.3425 18.42 28.3725C18.375 28.4025 18.33 28.425 18.285 28.44C18.24 28.4625 18.195 28.4775 18.1425 28.485C18.0975 28.4925 18.045 28.5 18 28.5Z" fill="#FF5F56"/>
<path d="M22.545 31.62H13.455C11.9925 31.62 10.875 31.0875 10.305 30.1275C9.74248 29.1675 9.81748 27.93 10.53 26.6475L15.075 18.4725C15.825 17.1225 16.86 16.38 18 16.38C19.14 16.38 20.175 17.1225 20.925 18.4725L25.47 26.655C26.1825 27.9375 26.265 29.1675 25.695 30.135C25.125 31.0875 24.0075 31.62 22.545 31.62ZM18 17.505C17.295 17.505 16.605 18.045 16.0575 19.02L11.52 27.2025C11.01 28.1175 10.9275 28.9575 11.28 29.565C11.6325 30.1725 12.4125 30.5025 13.4625 30.5025H22.5525C23.6025 30.5025 24.375 30.1725 24.735 29.565C25.095 28.9575 25.005 28.125 24.495 27.2025L19.9425 19.02C19.395 18.045 18.705 17.505 18 17.505Z" fill="#FF5F56"/>
<rect x="44" width="16" height="16" rx="8" fill="#FF5F56"/>
<path d="M49.0458 7.93331C50.8375 6.54998 53.1667 6.54998 54.9583 7.93331" stroke="white" stroke-width="0.3" stroke-linecap="round" stroke-linejoin="round"/>
<path d="M47.8333 6.48331C50.3583 4.53331 53.6416 4.53331 56.1666 6.48331" stroke="white" stroke-width="0.3" stroke-linecap="round" stroke-linejoin="round"/>
<path d="M49.8292 9.45415C51.1417 8.43748 52.8542 8.43748 54.1667 9.45415" stroke="white" stroke-width="0.3" stroke-linecap="round" stroke-linejoin="round"/>
<path d="M50.9166 10.9792C51.575 10.4708 52.4291 10.4708 53.0875 10.9792" stroke="white" stroke-width="0.3" stroke-linecap="round" stroke-linejoin="round"/>
</svg>
