<svg width="60" height="42" viewBox="0 0 60 42" fill="none" xmlns="http://www.w3.org/2000/svg">
<rect x="44" width="16" height="16" rx="8" fill="#755AE2"/>
<circle cx="17.5" cy="24.5" r="17.5" fill="#E6E0FF"/>
<path d="M18 20.9175L17.1975 22.3125C17.0175 22.62 17.1675 22.875 17.52 22.875H18.4725C18.8325 22.875 18.975 23.13 18.795 23.4375L18 24.8325" stroke="#755AE2" stroke-width="1.5" stroke-linecap="round" stroke-linejoin="round"/>
<path d="M15.225 28.53V27.66C13.5 26.6175 12.0825 24.585 12.0825 22.425C12.0825 18.7125 15.495 15.8025 19.35 16.6425C21.045 17.0175 22.53 18.1425 23.3025 19.695C24.87 22.845 23.22 26.19 20.7975 27.6525V28.5225C20.7975 28.74 20.88 29.2425 20.0775 29.2425H15.945C15.12 29.25 15.225 28.9275 15.225 28.53Z" stroke="#755AE2" stroke-width="1.5" stroke-linecap="round" stroke-linejoin="round"/>
<path d="M15.375 31.5C17.0925 31.0125 18.9075 31.0125 20.625 31.5" stroke="#755AE2" stroke-width="1.5" stroke-linecap="round" stroke-linejoin="round"/>
</svg>
