<svg width="51" height="43" viewBox="0 0 51 43" fill="none" xmlns="http://www.w3.org/2000/svg">
<rect x="35" width="16" height="16" rx="8" fill="#755AE2"/>
<path d="M43 6.2875L42.5542 7.0625C42.4542 7.23333 42.5375 7.375 42.7334 7.375H43.2625C43.4625 7.375 43.5417 7.51667 43.4417 7.6875L43 8.4625" stroke="white" stroke-width="0.5" stroke-linecap="round" stroke-linejoin="round"/>
<path d="M41.4584 10.5167V10.0333C40.5 9.45417 39.7125 8.325 39.7125 7.125C39.7125 5.0625 41.6084 3.44584 43.75 3.9125C44.6917 4.12084 45.5167 4.74584 45.9459 5.60834C46.8167 7.35833 45.9 9.21667 44.5542 10.0292V10.5125C44.5542 10.6333 44.6 10.9125 44.1542 10.9125H41.8584C41.4 10.9167 41.4584 10.7375 41.4584 10.5167Z" stroke="white" stroke-width="0.5" stroke-linecap="round" stroke-linejoin="round"/>
<path d="M41.5417 12.1667C42.4959 11.8958 43.5042 11.8958 44.4584 12.1667" stroke="white" stroke-width="0.5" stroke-linecap="round" stroke-linejoin="round"/>
<mask id="path-5-inside-1_0_1" fill="white">
<path d="M8.56304 42.0316C10.8612 42.0274 13.136 41.5707 15.2576 40.6874C17.3792 39.8041 19.306 38.5116 20.9281 36.8836C22.5502 35.2557 23.8358 33.3242 24.7114 31.1994C25.587 29.0746 26.0356 26.7981 26.0314 24.5C26.0273 22.2019 25.5705 19.9271 24.6872 17.8055C23.8039 15.6839 22.5114 13.757 20.8835 12.1349C19.2555 10.5128 17.324 9.22728 15.1992 8.35165C13.0744 7.47603 10.798 7.02749 8.49985 7.03164L8.50296 8.75698C10.5745 8.75324 12.6265 9.15756 14.5418 9.94685C16.4571 10.7361 18.1982 11.895 19.6657 13.3571C21.1331 14.8193 22.2982 16.5562 23.0944 18.4686C23.8906 20.381 24.3023 22.4316 24.3061 24.5031C24.3098 26.5747 23.9055 28.6267 23.1162 30.542C22.3269 32.4573 21.1681 34.1984 19.7059 35.6658C18.2438 37.1333 16.5069 38.2984 14.5944 39.0946C12.682 39.8908 10.6315 40.3025 8.55992 40.3062L8.56304 42.0316Z"/>
</mask>
<path d="M8.56304 42.0316C10.8612 42.0274 13.136 41.5707 15.2576 40.6874C17.3792 39.8041 19.306 38.5116 20.9281 36.8836C22.5502 35.2557 23.8358 33.3242 24.7114 31.1994C25.587 29.0746 26.0356 26.7981 26.0314 24.5C26.0273 22.2019 25.5705 19.9271 24.6872 17.8055C23.8039 15.6839 22.5114 13.757 20.8835 12.1349C19.2555 10.5128 17.324 9.22728 15.1992 8.35165C13.0744 7.47603 10.798 7.02749 8.49985 7.03164L8.50296 8.75698C10.5745 8.75324 12.6265 9.15756 14.5418 9.94685C16.4571 10.7361 18.1982 11.895 19.6657 13.3571C21.1331 14.8193 22.2982 16.5562 23.0944 18.4686C23.8906 20.381 24.3023 22.4316 24.3061 24.5031C24.3098 26.5747 23.9055 28.6267 23.1162 30.542C22.3269 32.4573 21.1681 34.1984 19.7059 35.6658C18.2438 37.1333 16.5069 38.2984 14.5944 39.0946C12.682 39.8908 10.6315 40.3025 8.55992 40.3062L8.56304 42.0316Z" fill="#E6E0FF" stroke="#755AE2" stroke-width="6" mask="url(#path-5-inside-1_0_1)"/>
<path d="M8.99998 21.9175L8.19748 23.3125C8.01748 23.62 8.16748 23.875 8.51998 23.875H9.47248C9.83248 23.875 9.97498 24.13 9.79498 24.4375L8.99998 25.8325" stroke="#755AE2" stroke-width="1.5" stroke-linecap="round" stroke-linejoin="round"/>
<path d="M6.22502 29.53V28.66C4.50002 27.6175 3.08252 25.585 3.08252 23.425C3.08252 19.7125 6.49502 16.8025 10.35 17.6425C12.045 18.0175 13.53 19.1425 14.3025 20.695C15.87 23.845 14.22 27.19 11.7975 28.6525V29.5225C11.7975 29.74 11.88 30.2425 11.0775 30.2425H6.94502C6.12002 30.25 6.22502 29.9275 6.22502 29.53Z" stroke="#755AE2" stroke-width="1.5" stroke-linecap="round" stroke-linejoin="round"/>
<path d="M6.375 32.5C8.0925 32.0125 9.9075 32.0125 11.625 32.5" stroke="#755AE2" stroke-width="1.5" stroke-linecap="round" stroke-linejoin="round"/>
</svg>
