<svg width="60" height="42" viewBox="0 0 60 42" fill="none" xmlns="http://www.w3.org/2000/svg">
<mask id="path-1-inside-1_0_1" fill="white">
<path d="M17.4683 42C7.80337 41.9825 -0.0174911 34.1334 -4.26723e-05 24.4684C0.0174057 14.8034 7.86655 6.98257 17.5315 7.00002C27.1965 7.01747 35.0173 14.8666 34.9999 24.5316C34.9825 34.1966 27.1333 42.0174 17.4683 42ZM17.5284 8.72536C8.81632 8.70963 1.74102 15.7594 1.72529 24.4715C1.70956 33.1836 8.75936 40.2589 17.4715 40.2746C26.1835 40.2904 33.2588 33.2406 33.2746 24.5285C33.2903 15.8164 26.2405 8.74109 17.5284 8.72536Z"/>
</mask>
<path d="M17.4683 42C7.80337 41.9825 -0.0174911 34.1334 -4.26723e-05 24.4684C0.0174057 14.8034 7.86655 6.98257 17.5315 7.00002C27.1965 7.01747 35.0173 14.8666 34.9999 24.5316C34.9825 34.1966 27.1333 42.0174 17.4683 42ZM17.5284 8.72536C8.81632 8.70963 1.74102 15.7594 1.72529 24.4715C1.70956 33.1836 8.75936 40.2589 17.4715 40.2746C26.1835 40.2904 33.2588 33.2406 33.2746 24.5285C33.2903 15.8164 26.2405 8.74109 17.5284 8.72536Z" fill="#E6E0FF" stroke="#755AE2" stroke-width="6" mask="url(#path-1-inside-1_0_1)"/>
<rect x="44" width="16" height="16" rx="8" fill="#755AE2"/>
<path d="M52 11.2292C50.45 11.2292 49.1875 9.96671 49.1875 8.41671V6.33337C49.1875 4.78337 50.45 3.52087 52 3.52087C53.55 3.52087 54.8125 4.78337 54.8125 6.33337V8.41671C54.8125 9.96671 53.55 11.2292 52 11.2292ZM52 4.14587C50.7958 4.14587 49.8125 5.12504 49.8125 6.33337V8.41671C49.8125 9.62504 50.7958 10.6042 52 10.6042C53.2042 10.6042 54.1875 9.62504 54.1875 8.41671V6.33337C54.1875 5.12504 53.2042 4.14587 52 4.14587Z" fill="white"/>
<path d="M52 12.4792C49.7583 12.4792 47.9375 10.6584 47.9375 8.41671V7.58337C47.9375 7.41254 48.0792 7.27087 48.25 7.27087C48.4208 7.27087 48.5625 7.41254 48.5625 7.58337V8.41671C48.5625 10.3125 50.1042 11.8542 52 11.8542C53.8958 11.8542 55.4375 10.3125 55.4375 8.41671V7.58337C55.4375 7.41254 55.5792 7.27087 55.75 7.27087C55.9208 7.27087 56.0625 7.41254 56.0625 7.58337V8.41671C56.0625 10.6584 54.2417 12.4792 52 12.4792Z" fill="white"/>
<path d="M53.0875 6.42912C53.0542 6.42912 53.0167 6.42495 52.9792 6.41245C52.3084 6.17078 51.5709 6.17078 50.9 6.41245C50.7417 6.47078 50.5625 6.38745 50.5042 6.22495C50.4459 6.06245 50.5292 5.88328 50.6917 5.82495C51.5 5.53328 52.3875 5.53328 53.1959 5.82495C53.3584 5.88328 53.4417 6.06245 53.3834 6.22495C53.3375 6.35412 53.2167 6.42912 53.0875 6.42912Z" fill="white"/>
<path d="M52.7083 7.67912C52.6833 7.67912 52.6542 7.67495 52.625 7.66662C52.1792 7.54578 51.7083 7.54578 51.2625 7.66662C51.0917 7.71245 50.925 7.61245 50.8792 7.44578C50.8333 7.27912 50.9333 7.10828 51.1 7.06245C51.6542 6.91245 52.2375 6.91245 52.7917 7.06245C52.9583 7.10828 53.0583 7.27912 53.0125 7.44578C52.9708 7.59162 52.8458 7.67912 52.7083 7.67912Z" fill="white"/>
<path d="M17.5 38.25C25.0939 38.25 31.25 32.0939 31.25 24.5C31.25 16.9061 25.0939 10.75 17.5 10.75C9.90609 10.75 3.75 16.9061 3.75 24.5C3.75 32.0939 9.90609 38.25 17.5 38.25Z" fill="#755AE2"/>
<path d="M15.5475 29.4225C15.2725 29.4225 15.0112 29.3125 14.8187 29.12L10.9275 25.2287C10.5287 24.83 10.5287 24.17 10.9275 23.7712C11.3262 23.3725 11.9862 23.3725 12.385 23.7712L15.5475 26.9337L22.615 19.8662C23.0137 19.4675 23.6737 19.4675 24.0725 19.8662C24.4712 20.265 24.4712 20.925 24.0725 21.3237L16.2762 29.12C16.0837 29.3125 15.8225 29.4225 15.5475 29.4225Z" fill="white"/>
</svg>
