<svg width="59" height="122" viewBox="0 0 59 122" fill="none" xmlns="http://www.w3.org/2000/svg">
<rect x="43" width="16" height="16" rx="8" fill="#755AE2"/>
<path d="M54.3334 7.96333V8.26C54.3334 9.44666 54.0367 9.74 52.8534 9.74H49.1467C47.9634 9.74 47.6667 9.44333 47.6667 8.26V6.14666C47.6667 4.96333 47.9634 4.66666 49.1467 4.66666H49.6667" stroke="white" stroke-width="0.3" stroke-linecap="round" stroke-linejoin="round"/>
<path d="M51 9.74V11.3333" stroke="white" stroke-width="0.3" stroke-linecap="round" stroke-linejoin="round"/>
<path d="M47.6667 8.33334H54.3334" stroke="white" stroke-width="0.3" stroke-linecap="round" stroke-linejoin="round"/>
<path d="M49.5 11.3333H52.5" stroke="white" stroke-width="0.3" stroke-linecap="round" stroke-linejoin="round"/>
<path d="M52.9534 7.12333H51.3667C50.9067 7.12333 50.7534 6.81666 50.7534 6.51V5.33666C50.7534 4.97 51.0534 4.67 51.42 4.67H52.9534C53.2934 4.67 53.5667 4.94333 53.5667 5.28333V6.51C53.5667 6.85 53.2934 7.12333 52.9534 7.12333Z" stroke="white" stroke-width="0.3" stroke-linecap="round" stroke-linejoin="round"/>
<path d="M53.97 6.64L53.5667 6.35667V5.43667L53.97 5.15334C54.17 5.01667 54.3333 5.1 54.3333 5.34334V6.45334C54.3333 6.69667 54.17 6.78 53.97 6.64Z" stroke="white" stroke-width="0.3" stroke-linecap="round" stroke-linejoin="round"/>
<path d="M16.5 38.25C24.0939 38.25 30.25 32.0939 30.25 24.5C30.25 16.9061 24.0939 10.75 16.5 10.75C8.90609 10.75 2.75 16.9061 2.75 24.5C2.75 32.0939 8.90609 38.25 16.5 38.25Z" fill="#755AE2"/>
<path d="M16.5 121.25C24.0939 121.25 30.25 115.094 30.25 107.5C30.25 99.9061 24.0939 93.75 16.5 93.75C8.90609 93.75 2.75 99.9061 2.75 107.5C2.75 115.094 8.90609 121.25 16.5 121.25Z" fill="#755AE2"/>
<path d="M14.5475 29.4225C14.2725 29.4225 14.0112 29.3125 13.8187 29.12L9.92748 25.2288C9.52873 24.83 9.52873 24.17 9.92748 23.7713C10.3262 23.3725 10.9862 23.3725 11.385 23.7713L14.5475 26.9338L21.615 19.8663C22.0137 19.4675 22.6737 19.4675 23.0725 19.8663C23.4712 20.265 23.4712 20.925 23.0725 21.3238L15.2762 29.12C15.0837 29.3125 14.8225 29.4225 14.5475 29.4225Z" fill="white"/>
<path d="M14.5475 112.423C14.2725 112.423 14.0112 112.313 13.8187 112.12L9.92748 108.229C9.52873 107.83 9.52873 107.17 9.92748 106.771C10.3262 106.373 10.9862 106.373 11.385 106.771L14.5475 109.934L21.615 102.866C22.0137 102.468 22.6737 102.468 23.0725 102.866C23.4712 103.265 23.4712 103.925 23.0725 104.324L15.2762 112.12C15.0837 112.313 14.8225 112.423 14.5475 112.423Z" fill="white"/>
</svg>
